<?xml version="1.0" encoding="UTF-8" standalone="no"?>
<!-- Created with Inkscape (http://www.inkscape.org/) -->

<svg
   xmlns:dc="http://purl.org/dc/elements/1.1/"
   xmlns:cc="http://creativecommons.org/ns#"
   xmlns:rdf="http://www.w3.org/1999/02/22-rdf-syntax-ns#"
   xmlns:svg="http://www.w3.org/2000/svg"
   xmlns="http://www.w3.org/2000/svg"
   xmlns:sodipodi="http://sodipodi.sourceforge.net/DTD/sodipodi-0.dtd"
   xmlns:inkscape="http://www.inkscape.org/namespaces/inkscape"
   height="498.97775"
   width="498.97797"
   id="svg2"
   sodipodi:version="0.32"
   inkscape:version="0.48.2 r9819"
   version="1.0"
   sodipodi:docname="AJAX.svg">
  <defs
     id="defs4">
    <pattern
       patternUnits="userSpaceOnUse"
       width="370"
       height="476"
       patternTransform="translate(18.50938,18)"
       id="pattern5932">
      <rect
         ry="20"
         rx="20"
         y="0"
         x="0"
         height="476"
         width="370"
         id="rect5934"
         style="fill:#00e5ff;fill-opacity:1" />
    </pattern>
    <pattern
       id="pattern4002"
       patternTransform="translate(18.50938,18)"
       height="476"
       width="370"
       patternUnits="userSpaceOnUse">
      <rect
         style="fill:#00e5ff;fill-opacity:1"
         id="rect2240"
         width="370"
         height="476"
         x="0"
         y="0"
         rx="20"
         ry="20" />
    </pattern>
    <marker
       style="overflow:visible"
       id="Arrow2Lstart"
       refX="0"
       refY="0"
       orient="auto"
       inkscape:stockid="Arrow2Lstart">
      <path
         transform="matrix(1.1,0,0,1.1,1.1,0)"
         d="M 8.7185878,4.0337352 -2.2072895,0.01601326 8.7185884,-4.0017078 c -1.7454984,2.3720609 -1.7354408,5.6174519 -6e-7,8.035443 z"
         style="font-size:12px;fill-rule:evenodd;stroke-width:0.625;stroke-linejoin:round"
         id="path5785"
         inkscape:connector-curvature="0" />
    </marker>
  </defs>
  <sodipodi:namedview
     id="base"
     pagecolor="#ffffff"
     bordercolor="#666666"
     borderopacity="1.0"
     inkscape:pageopacity="0.0"
     inkscape:pageshadow="2"
     inkscape:cx="272.25892"
     inkscape:cy="205.58748"
     inkscape:zoom="1.2720002"
     inkscape:document-units="px"
     inkscape:current-layer="layer1"
     inkscape:window-width="1280"
     inkscape:window-height="1004"
     inkscape:window-x="-8"
     inkscape:window-y="-8"
     showgrid="false"
     fit-margin-top="0"
     fit-margin-left="0"
     fit-margin-right="0"
     fit-margin-bottom="0"
     inkscape:window-maximized="1" />
  <metadata
     id="metadata7">
    <rdf:RDF>
      <cc:Work
         rdf:about="">
        <dc:format>image/svg+xml</dc:format>
        <dc:type
           rdf:resource="http://purl.org/dc/dcmitype/StillImage" />
      </cc:Work>
    </rdf:RDF>
  </metadata>
  <g
     inkscape:groupmode="layer"
     inkscape:label="Warstwa 1"
     id="layer1"
     transform="translate(-3.0110038,-3.0111274)">
    <path
       sodipodi:type="arc"
       style="fill:#003399;fill-opacity:1;stroke:none"
       id="path1307"
       sodipodi:cx="394.28571"
       sodipodi:cy="549.50507"
       sodipodi:rx="234.28572"
       sodipodi:ry="254.28572"
       d="m 628.57143,549.50507 a 234.28572,254.28572 0 1 1 -468.57145,0 234.28572,254.28572 0 1 1 468.57145,0 z"
       transform="matrix(-1.064892,0,0,0.981136,672.37169,-286.6392)" />
    <path
       inkscape:connector-curvature="0"
       id="path1959"
       style="fill:#ffffff;fill-rule:evenodd;stroke:none"
       d="m 320.71591,175.14149 -26.73904,11.81294 -7.74025,32.47492 -6.24764,50.91932 7.01527,1.89775 10.57621,-39.46887 -4.28593,33.90357 3.17713,0.68233 -7.50569,89.87643 14.54228,0 14.54228,-85.33463 21.10977,72.6901 15.01139,0 6.35425,-15.90696 -7.71892,-3.39036 -13.64672,-76.57088 6.52484,-35.63073 34.37266,50.6208 1.98304,-2.66538 18.25249,11.23722 10.1071,-3.7102 -9.14757,38.87183 3.68888,1.00218 -11.70632,45.18343 11.53574,1.55658 14.62757,-42.75261 18.03926,33.26387 7.03659,-0.21323 4.64841,-12.49527 -5.30943,0 -11.08795,-28.59414 5.65059,-22.58106 10.25636,19.70245 10.12843,-3.7102 -20.87522,-41.60117 -19.12673,-2.8786 -18.31645,8.35861 -13.8016,-8.62433 -35.19865,-63.1702 -16.82384,-13.62539 -13.90259,-1.13012 z" />
    <path
       inkscape:connector-curvature="0"
       id="opona"
       d="m 67.052397,236.41404 c -22.16212,0.28103 -40.06299,18.35752 -40.06299,40.58592 0,22.40342 18.1825,40.58592 40.58592,40.58592 22.40343,0 40.585923,-18.1825 40.585923,-40.58592 0,-22.40343 -18.182493,-40.58592 -40.585923,-40.58592 -0.17502,0 -0.34843,-0.002 -0.52293,0 z m 0.0781,6.24399 c 0.14766,-0.002 0.29678,0 0.44488,0 18.95675,0 34.341933,15.38518 34.341933,34.34193 0,18.95674 -15.385183,34.34193 -34.341933,34.34193 -18.95674,0 -34.34193,-15.38519 -34.34193,-34.34193 0,-18.80865 15.14449,-34.10413 33.89705,-34.34193 z"
       style="fill:#ffffff;fill-opacity:1;fill-rule:nonzero;stroke:none" />
    <path
       inkscape:connector-curvature="0"
       id="path1324"
       d="m 198.17613,236.41404 c -22.16211,0.28103 -40.06298,18.35752 -40.06298,40.58592 0,22.40342 18.18249,40.58592 40.58592,40.58592 22.40343,0 40.58592,-18.1825 40.58592,-40.58592 0,-22.40343 -18.18249,-40.58592 -40.58592,-40.58592 -0.17503,0 -0.34843,-0.002 -0.52294,0 z m 0.078,6.24399 c 0.14766,-0.002 0.29679,0 0.44489,0 18.95674,0 34.34193,15.38518 34.34193,34.34193 0,18.95674 -15.38519,34.34193 -34.34193,34.34193 -18.95675,0 -34.34193,-15.38519 -34.34193,-34.34193 0,-18.80865 15.14448,-34.10413 33.89704,-34.34193 z"
       style="fill:#ffffff;fill-opacity:1;fill-rule:nonzero;stroke:none" />
    <path
       inkscape:connector-curvature="0"
       style="fill:none;stroke:#ffffff;stroke-width:6.24398756;stroke-linecap:butt;stroke-linejoin:miter;stroke-miterlimit:4;stroke-opacity:1;stroke-dasharray:none"
       d="m 83.185297,214.56008 77.425443,0 38.08833,62.43988"
       id="poprzeczka" />
    <path
       inkscape:connector-curvature="0"
       style="fill:none;stroke:#ffffff;stroke-width:6.24398756;stroke-linecap:butt;stroke-linejoin:miter;stroke-miterlimit:4;stroke-opacity:1;stroke-dasharray:none"
       d="m 67.575327,276.99996 c 0,0 22.69696,-79.52876 23.10276,-80.54744 1.72044,-4.31889 2.29051,-5.77943 7.49278,-6.86839 0.75994,-0.15907 9.990383,0 9.990383,0"
       id="kierownica"
       sodipodi:nodetypes="cssc" />
    <path
       inkscape:connector-curvature="0"
       style="fill:#ffffff;fill-opacity:1;fill-rule:evenodd;stroke:none"
       d="m 164.35713,205.1941 18.73197,0 0,-12.48797 c 0,0 -37.39449,-0.34796 -40.58592,0 -2.96192,0.32293 -1.83106,5.7047 0,6.24399 31.17762,9.18238 21.85395,6.24398 21.85395,6.24398 z"
       id="siodelko"
       sodipodi:nodetypes="ccczsc" />
    <path
       inkscape:connector-curvature="0"
       style="fill:none;stroke:#ffffff;stroke-width:6.24398756;stroke-linecap:butt;stroke-linejoin:miter;stroke-miterlimit:4;stroke-opacity:1;stroke-dasharray:none"
       d="M 142.50318,276.99996 82.186257,226.42366"
       id="ukos-damka" />
    <path
       transform="matrix(0.2497595,0,0,0.2497595,8.257447,136.51024)"
       d="m 262.5,562.5 a 25,25 0 1 1 -50,0 25,25 0 1 1 50,0 z"
       sodipodi:ry="25"
       sodipodi:rx="25"
       sodipodi:cy="562.5"
       sodipodi:cx="237.5"
       id="piasta"
       style="fill:#ffffff;fill-opacity:1;fill-rule:nonzero;stroke:none"
       sodipodi:type="arc" />
    <path
       inkscape:connector-curvature="0"
       style="fill:none;stroke:#ffffff;stroke-width:6.24398756;stroke-linecap:butt;stroke-linejoin:miter;stroke-miterlimit:4;stroke-opacity:1;stroke-dasharray:none"
       d="m 142.50318,276.99996 56.19588,0"
       id="wzdlozlancucha" />
    <path
       inkscape:connector-curvature="0"
       style="fill:none;stroke:#ffffff;stroke-width:6.24398756;stroke-linecap:butt;stroke-linejoin:miter;stroke-miterlimit:4;stroke-opacity:1;stroke-dasharray:none"
       d="m 142.50318,276.99996 24.97595,-78.04985"
       id="slupek-siodelko" />
    <path
       sodipodi:type="arc"
       style="fill:#ffffff;fill-opacity:1;fill-rule:nonzero;stroke:none"
       id="kolo=pedalowe"
       sodipodi:cx="537.5"
       sodipodi:cy="562.5"
       sodipodi:rx="50"
       sodipodi:ry="50"
       d="m 587.5,562.5 a 50,50 0 1 1 -100,0 50,50 0 1 1 100,0 z"
       transform="matrix(0.2497595,0,0,0.2497595,8.257447,136.51024)" />
    <path
       transform="matrix(0.2497595,0,0,0.2497595,139.38119,136.51024)"
       d="m 262.5,562.5 a 25,25 0 1 1 -50,0 25,25 0 1 1 50,0 z"
       sodipodi:ry="25"
       sodipodi:rx="25"
       sodipodi:cy="562.5"
       sodipodi:cx="237.5"
       id="path1326"
       style="fill:#ffffff;fill-opacity:1;fill-rule:nonzero;stroke:none"
       sodipodi:type="arc" />
    <path
       inkscape:connector-curvature="0"
       id="path1961"
       style="fill:#ffffff;fill-opacity:1;fill-rule:nonzero;stroke:none"
       d="m 343.03236,160.48497 c 0.003,7.59188 -6.15119,13.74766 -13.74308,13.74766 -7.59188,0 -13.7456,-6.15578 -13.74307,-13.74766 -0.003,-7.59188 6.15119,-13.74766 13.74307,-13.74766 7.59189,0 13.74561,6.15578 13.74308,13.74766 z" />
    <path
       inkscape:connector-curvature="0"
       id="path1968"
       style="fill:#ffffff;fill-opacity:1;fill-rule:nonzero;stroke:none"
       d="m 443.25471,243.07907 c 0.002,6.33702 -5.13446,11.47532 -11.47149,11.47532 -6.33703,0 -11.47361,-5.1383 -11.47149,-11.47532 -0.002,-6.33703 5.13446,-11.47533 11.47149,-11.47533 6.33703,0 11.47361,5.1383 11.47149,11.47533 z" />
    <rect
       style="fill:#ffffff;fill-opacity:1"
       id="rect3447"
       width="8"
       height="487.48599"
       x="-255.98898"
       y="8.7158899"
       rx="0"
       ry="0"
       transform="scale(-1,1)" />
  </g>
</svg>
